<svg width="20" height="20" viewBox="0 0 20 20" fill="none" xmlns="http://www.w3.org/2000/svg">
<path d="M14.1573 11.6589L16.6557 14.4071C16.7698 14.5235 16.8473 14.6708 16.8784 14.8308C16.9096 14.9908 16.8932 15.1565 16.8311 15.3072C16.769 15.4579 16.6641 15.5871 16.5293 15.6788C16.3945 15.7705 16.2357 15.8205 16.0727 15.8228H3.9141C3.75111 15.8205 3.59237 15.7705 3.45756 15.6788C3.32275 15.5871 3.21781 15.4579 3.15574 15.3072C3.09368 15.1565 3.07721 14.9908 3.10839 14.8308C3.13958 14.6708 3.21703 14.5235 3.33116 14.4071L5.82951 11.6589H5.57967C5.41667 11.6566 5.25793 11.6065 5.12313 11.5149C4.98832 11.4232 4.88338 11.294 4.82131 11.1433C4.75924 10.9926 4.74278 10.8269 4.77396 10.6669C4.80514 10.5069 4.8826 10.3596 4.99672 10.2432L7.49507 7.49499H7.32852C7.15842 7.51034 6.98772 7.47301 6.83954 7.38808C6.69137 7.30314 6.5729 7.1747 6.50018 7.02017C6.42746 6.86564 6.40401 6.69249 6.433 6.52418C6.462 6.35587 6.54205 6.20055 6.66229 6.07926L9.99342 2.49829L13.3246 6.07926C13.4448 6.20055 13.5248 6.35587 13.5538 6.52418C13.5828 6.69249 13.5594 6.86564 13.4867 7.02017C13.4139 7.1747 13.2955 7.30314 13.1473 7.38808C12.9991 7.47301 12.8284 7.51034 12.6583 7.49499H12.4918L14.9901 10.2432C15.1042 10.3596 15.1817 10.5069 15.2129 10.6669C15.2441 10.8269 15.2276 10.9926 15.1655 11.1433C15.1035 11.294 14.9985 11.4232 14.8637 11.5149C14.7289 11.6065 14.5702 11.6566 14.4072 11.6589H14.1573Z" stroke="#2C2C2C" stroke-width="2.08196" stroke-linecap="round" stroke-linejoin="round"/>
<path d="M9.99341 18.3213V15.823" stroke="#2C2C2C" stroke-width="2.08196" stroke-linecap="round" stroke-linejoin="round"/>
</svg>
