<svg width="20" height="20" viewBox="0 0 20 20" fill="none" xmlns="http://www.w3.org/2000/svg">
<path d="M9.99341 12.4918C11.3732 12.4918 12.4918 11.3733 12.4918 9.99347C12.4918 8.61367 11.3732 7.49512 9.99341 7.49512C8.61361 7.49512 7.49506 8.61367 7.49506 9.99347C7.49506 11.3733 8.61361 12.4918 9.99341 12.4918Z" stroke="#2C2C2C" stroke-width="2.08196" stroke-linecap="round" stroke-linejoin="round"/>
<path d="M9.9934 13.7409C9.9934 14.4821 9.77362 15.2066 9.36183 15.8229C8.95005 16.4392 8.36477 16.9195 7.67999 17.2031C6.99522 17.4868 6.24172 17.561 5.51477 17.4164C4.78782 17.2718 4.12008 16.9149 3.59598 16.3908C3.07188 15.8667 2.71496 15.1989 2.57036 14.472C2.42576 13.745 2.49998 12.9915 2.78362 12.3068C3.06726 11.622 3.54759 11.0367 4.16387 10.6249C4.78014 10.2131 5.50469 9.99334 6.24588 9.99334C5.50469 9.99334 4.78014 9.77355 4.16387 9.36177C3.54759 8.94999 3.06726 8.3647 2.78362 7.67993C2.49998 6.99516 2.42576 6.24166 2.57036 5.51471C2.71496 4.78776 3.07188 4.12002 3.59598 3.59592C4.12008 3.07182 4.78782 2.7149 5.51477 2.5703C6.24172 2.4257 6.99522 2.49991 7.67999 2.78356C8.36477 3.0672 8.95005 3.54753 9.36183 4.1638C9.77362 4.78008 9.9934 5.50463 9.9934 6.24582C9.9934 5.50463 10.2132 4.78008 10.625 4.1638C11.0368 3.54753 11.622 3.0672 12.3068 2.78356C12.9916 2.49991 13.7451 2.4257 14.472 2.5703C15.199 2.7149 15.8667 3.07182 16.3908 3.59592C16.9149 4.12002 17.2718 4.78776 17.4164 5.51471C17.561 6.24166 17.4868 6.99516 17.2032 7.67993C16.9195 8.3647 16.4392 8.94999 15.8229 9.36177C15.2067 9.77355 14.4821 9.99334 13.7409 9.99334C14.4821 9.99334 15.2067 10.2131 15.8229 10.6249C16.4392 11.0367 16.9195 11.622 17.2032 12.3068C17.4868 12.9915 17.561 13.745 17.4164 14.472C17.2718 15.1989 16.9149 15.8667 16.3908 16.3908C15.8667 16.9149 15.199 17.2718 14.472 17.4164C13.7451 17.561 12.9916 17.4868 12.3068 17.2031C11.622 16.9195 11.0368 16.4392 10.625 15.8229C10.2132 15.2066 9.9934 14.4821 9.9934 13.7409Z" stroke="#2C2C2C" stroke-width="2.08196" stroke-linecap="round" stroke-linejoin="round"/>
<path d="M9.99341 6.24585V7.49502" stroke="#2C2C2C" stroke-width="2.08196" stroke-linecap="round" stroke-linejoin="round"/>
<path d="M6.24585 9.99341H7.49502" stroke="#2C2C2C" stroke-width="2.08196" stroke-linecap="round" stroke-linejoin="round"/>
<path d="M13.7409 9.99341H12.4918" stroke="#2C2C2C" stroke-width="2.08196" stroke-linecap="round" stroke-linejoin="round"/>
<path d="M9.99341 13.7409V12.4917" stroke="#2C2C2C" stroke-width="2.08196" stroke-linecap="round" stroke-linejoin="round"/>
<path d="M6.66229 6.66235L8.22793 8.22799" stroke="#2C2C2C" stroke-width="2.08196" stroke-linecap="round" stroke-linejoin="round"/>
<path d="M11.7589 8.22799L13.3245 6.66235" stroke="#2C2C2C" stroke-width="2.08196" stroke-linecap="round" stroke-linejoin="round"/>
<path d="M6.66229 13.3244L8.22793 11.7588" stroke="#2C2C2C" stroke-width="2.08196" stroke-linecap="round" stroke-linejoin="round"/>
<path d="M11.7589 11.7588L13.3245 13.3244" stroke="#2C2C2C" stroke-width="2.08196" stroke-linecap="round" stroke-linejoin="round"/>
</svg>
