<svg width="24" height="24" viewBox="0 0 24 24" fill="none" xmlns="http://www.w3.org/2000/svg">
<path d="M14.9918 20.9885V12.9929C14.9918 12.7278 14.8865 12.4736 14.6991 12.2861C14.5116 12.0987 14.2574 11.9934 13.9924 11.9934H9.99454C9.72947 11.9934 9.47525 12.0987 9.28782 12.2861C9.10039 12.4736 8.99509 12.7278 8.99509 12.9929V20.9885" stroke="#2C2C2C" stroke-width="2.49864" stroke-linecap="round" stroke-linejoin="round"/>
<path d="M2.99837 9.9945C2.9983 9.70373 3.06167 9.41644 3.18405 9.15268C3.30644 8.88892 3.4849 8.65503 3.70698 8.46734L10.7032 2.47161C11.0639 2.16669 11.5211 1.99939 11.9935 1.99939C12.4658 1.99939 12.923 2.16669 13.2838 2.47161L20.2799 8.46734C20.502 8.65503 20.6805 8.88892 20.8029 9.15268C20.9252 9.41644 20.9886 9.70373 20.9885 9.9945V18.9896C20.9885 19.5197 20.7779 20.0282 20.4031 20.403C20.0282 20.7779 19.5198 20.9885 18.9896 20.9885H4.99728C4.46713 20.9885 3.9587 20.7779 3.58383 20.403C3.20897 20.0282 2.99837 19.5197 2.99837 18.9896V9.9945Z" stroke="#2C2C2C" stroke-width="2.49864" stroke-linecap="round" stroke-linejoin="round"/>
</svg>
